<svg xmlns="http://www.w3.org/2000/svg" width="515" height="484" viewBox="0 0 515 484" version="1.1"><path d="M 184.436 126 C 184.764 128.475, 188.182 162.900, 192.033 202.500 C 195.884 242.100, 199.295 275.771, 199.613 277.324 C 201.637 287.203, 219.782 295.629, 246.500 299.099 C 268.994 302.020, 301.009 296.728, 314.365 287.882 C 322.757 282.323, 322.619 282.861, 327.055 238.308 C 333.619 172.373, 338 126.936, 338 124.792 C 338 123.022, 337.501 123.218, 334.025 126.359 C 311.977 146.277, 251.431 151.978, 210.344 138.003 C 200.048 134.501, 193.874 131.054, 188.170 125.623 L 183.840 121.500 184.436 126 M 327.750 141.566 L 323 144.038 323 150.519 C 323 154.339, 323.427 157, 324.040 157 C 324.612 157, 326.796 156.124, 328.894 155.054 C 332.413 153.259, 332.758 152.697, 333.346 147.804 C 334.180 140.856, 334.160 138.990, 333.250 139.047 C 332.837 139.072, 330.363 140.206, 327.750 141.566 M 190.375 143.125 C 190.719 144.844, 191 148.210, 191 150.605 C 191 154.671, 191.262 155.093, 194.960 156.980 C 201.255 160.191, 201.610 159.921, 201.541 151.974 L 201.479 144.947 196.140 142.474 C 193.204 141.113, 190.565 140, 190.276 140 C 189.987 140, 190.031 141.406, 190.375 143.125 M 308 148.891 L 302.500 150.585 302.206 157.792 C 302.045 161.757, 302.295 165, 302.762 165 C 303.229 165, 306.399 164.059, 309.806 162.908 L 316 160.816 316 153.908 C 316 146.151, 316.294 146.335, 308 148.891 M 209 155.461 L 209 162.923 214.182 164.461 C 222.148 166.827, 222 166.937, 222 158.664 L 222 151.328 216.015 149.664 C 212.723 148.749, 209.798 148, 209.515 148 C 209.232 148, 209 151.358, 209 155.461 M 229.868 153.461 C 229.666 153.661, 229.647 157.211, 229.827 161.350 L 230.154 168.875 235.827 169.539 C 246.473 170.785, 245.500 171.442, 245.500 163.012 L 245.500 155.525 240.500 154.823 C 237.750 154.438, 234.316 153.891, 232.868 153.610 C 231.420 153.328, 230.070 153.261, 229.868 153.461 M 284.750 154.242 L 279 155.227 279 162.707 L 279 170.188 284.057 169.492 C 294.738 168.023, 294.463 168.261, 294.794 160.181 C 295.129 151.989, 295.751 152.357, 284.750 154.242 M 255 163.500 L 255 171 262.500 171 L 270 171 270 163.500 L 270 156 262.500 156 L 255 156 255 163.500 M 202.012 177.643 C 202.032 180.636, 208.916 249.255, 209.222 249.503 C 209.375 249.627, 212.425 250.658, 216 251.793 C 244.105 260.720, 279.895 260.762, 308.577 251.903 C 312.110 250.812, 315 249.775, 315 249.598 C 315 249.420, 316.571 234.251, 318.491 215.888 C 320.411 197.524, 321.986 181.086, 321.991 179.357 L 322 176.214 314.750 179.022 C 288.844 189.054, 241.129 189.529, 213.500 180.029 C 209.100 178.516, 204.713 176.943, 203.750 176.532 C 202.442 175.975, 202.003 176.255, 202.012 177.643 M 312.500 263.528 C 311.950 263.732, 308.913 264.628, 305.750 265.520 L 300 267.142 300 274.571 C 300 278.664, 300.432 282, 300.962 282 C 301.492 282, 304.386 281.079, 307.393 279.954 C 313.277 277.753, 313.151 277.969, 314.497 267.750 C 315.091 263.237, 314.823 262.668, 312.500 263.528 M 208.009 266.143 C 208.013 267.439, 208.304 270.885, 208.654 273.799 C 209.346 279.564, 210.551 280.695, 218.250 282.809 L 222 283.839 222 275.947 L 222 268.056 216.250 266.392 C 213.088 265.477, 209.938 264.517, 209.250 264.257 C 208.469 263.963, 208.003 264.670, 208.009 266.143 M 288 269.987 C 286.075 270.420, 282.794 271.074, 280.709 271.440 L 276.918 272.106 277.209 279.803 C 277.535 288.435, 276.773 287.943, 286.750 285.965 L 293 284.727 293 276.863 C 293 272.539, 292.663 269.045, 292.250 269.100 C 291.837 269.156, 289.925 269.555, 288 269.987 M 229.720 270.613 C 229.324 271.009, 229 274.393, 229 278.131 C 229 286.103, 229.407 286.494, 238.799 287.557 L 245 288.258 245 280.258 L 245 272.258 239.750 271.573 C 236.863 271.196, 233.586 270.664, 232.470 270.391 C 231.353 270.117, 230.116 270.218, 229.720 270.613 M 254 281.044 L 254 289.088 261.250 288.794 L 268.500 288.500 268.792 280.750 L 269.084 273 261.542 273 L 254 273 254 281.044" stroke="none" fill="#090909" fill-rule="evenodd"/><path d="M 334.500 72.120 C 333.400 72.661, 330.325 76.031, 327.666 79.609 C 324.918 83.305, 321.367 86.811, 319.438 87.731 C 316.218 89.266, 315.443 89.212, 304.272 86.672 C 287.861 82.940, 278.067 81.944, 259 82.066 C 207.608 82.396, 173.452 99.385, 182.461 120.135 C 183.264 121.986, 183.939 123.069, 183.961 122.542 C 183.982 122.015, 185.913 123.420, 188.250 125.665 C 195.972 133.080, 209.209 138.897, 226.479 142.464 C 265.829 150.592, 315.422 143.165, 334.025 126.359 L 338 122.767 338.136 126.134 C 338.241 128.723, 338.362 128.923, 338.659 127 C 338.872 125.625, 339.744 121.875, 340.598 118.667 C 341.452 115.459, 341.896 112.171, 341.585 111.361 C 340.709 109.078, 343.503 103.412, 348.837 96.657 C 351.511 93.271, 353.969 89.090, 354.301 87.367 C 355.214 82.618, 353.345 77.510, 349.441 74.082 C 346.541 71.536, 345.110 71.012, 341.215 71.068 C 338.622 71.105, 335.600 71.578, 334.500 72.120 M 238.872 92.973 C 232.800 94.057, 229.802 95.733, 230.203 97.817 C 231.047 102.197, 252.178 104.029, 259.667 100.372 C 261.775 99.342, 263.459 98.050, 263.410 97.500 C 263.103 94.109, 248.056 91.333, 238.872 92.973 M 283.942 97.885 C 275.716 100.583, 274.703 103.838, 281.250 106.531 C 287.346 109.038, 302.374 108.956, 307.635 106.387 C 316.436 102.090, 310.986 97.863, 296 97.363 C 290.775 97.189, 285.349 97.424, 283.942 97.885 M 254.544 109.195 C 252.603 110.321, 252.603 110.335, 254.544 111.094 C 257.361 112.196, 263.249 112.134, 265 110.985 C 268.722 108.541, 258.645 106.817, 254.544 109.195 M 214.060 111.136 C 207.367 112.246, 202.602 114.900, 202.187 117.748 C 201.187 124.614, 230.246 127.956, 241.808 122.305 C 255.032 115.841, 234.799 107.697, 214.060 111.136 M 268.326 117.983 C 263.482 119.012, 258.892 121.220, 257.095 123.386 C 254.975 125.940, 256.799 128.662, 262.283 131.131 C 266.856 133.189, 269.043 133.480, 280 133.490 C 291.360 133.499, 292.951 133.272, 297.443 131 C 304.263 127.550, 305.274 125.552, 301.748 122.486 C 300.235 121.170, 297.310 119.586, 295.248 118.967 C 290.287 117.477, 273.583 116.866, 268.326 117.983 M 184.252 129.500 C 184.263 131.700, 184.468 132.482, 184.707 131.238 C 184.946 129.994, 184.937 128.194, 184.687 127.238 C 184.437 126.282, 184.241 127.300, 184.252 129.500 M 337.252 135.500 C 337.263 137.700, 337.468 138.482, 337.707 137.238 C 337.946 135.994, 337.937 134.194, 337.687 133.238 C 337.437 132.282, 337.241 133.300, 337.252 135.500 M 185.252 139.500 C 185.263 141.700, 185.468 142.482, 185.707 141.238 C 185.946 139.994, 185.937 138.194, 185.687 137.238 C 185.437 136.282, 185.241 137.300, 185.252 139.500 M 329 141 C 324.891 143.250, 325.756 143.695, 329.987 141.507 C 332.863 140.019, 332.876 140.026, 333.277 143.257 C 333.673 146.442, 333.683 146.432, 333.840 142.750 C 334.023 138.470, 333.781 138.383, 329 141 M 190.116 142.250 C 190.199 143.854, 190.360 144.014, 190.679 142.805 C 190.958 141.745, 191.757 141.312, 192.813 141.650 C 194.254 142.110, 194.281 142.031, 193 141.110 C 190.731 139.477, 189.988 139.771, 190.116 142.250 M 336.252 145.500 C 336.263 147.700, 336.468 148.482, 336.707 147.238 C 336.946 145.994, 336.937 144.194, 336.687 143.238 C 336.437 142.282, 336.241 143.300, 336.252 145.500 M 323.667 143.667 C 322.558 144.776, 322.900 157, 324.040 157 C 324.612 157, 326.862 156.091, 329.040 154.980 C 331.979 153.480, 332.965 152.384, 332.864 150.730 C 332.734 148.609, 332.707 148.602, 332.316 150.588 C 331.978 152.300, 326.553 156, 324.381 156 C 324.077 156, 323.980 153.074, 324.165 149.498 C 324.349 145.922, 324.462 142.997, 324.417 142.998 C 324.371 142.999, 324.033 143.300, 323.667 143.667 M 186.252 149.500 C 186.263 151.700, 186.468 152.482, 186.707 151.238 C 186.946 149.994, 186.937 148.194, 186.687 147.238 C 186.437 146.282, 186.241 147.300, 186.252 149.500 M 313.696 147.791 C 314.355 148.210, 315.055 151.465, 315.254 155.026 L 315.615 161.500 315.807 154.250 C 315.975 147.933, 315.775 147.002, 314.250 147.015 C 313.066 147.026, 312.887 147.277, 313.696 147.791 M 191.168 151.230 C 191.014 154.652, 191.338 155.132, 195.097 157.049 C 197.350 158.199, 199.380 158.954, 199.607 158.726 C 199.834 158.499, 198.240 157.510, 196.063 156.528 C 192.671 154.999, 192.050 154.226, 191.721 151.122 L 191.336 147.500 191.168 151.230 M 302.667 150.667 C 302.300 151.033, 302 154.408, 302 158.167 C 302 164.038, 302.246 164.989, 303.750 164.921 C 304.795 164.874, 304.997 164.639, 304.250 164.338 C 303.435 164.009, 303 161.631, 303 157.500 C 303 153.369, 303.435 150.991, 304.250 150.662 C 304.948 150.381, 305.021 150.123, 304.417 150.079 C 303.821 150.036, 303.033 150.300, 302.667 150.667 M 335.252 155.500 C 335.263 157.700, 335.468 158.482, 335.707 157.238 C 335.946 155.994, 335.937 154.194, 335.687 153.238 C 335.437 152.282, 335.241 153.300, 335.252 155.500 M 242.750 155.720 C 244.824 156.101, 245 156.668, 245 162.983 C 245 166.751, 244.539 170.062, 243.975 170.342 C 243.411 170.621, 243.524 170.734, 244.225 170.592 C 245.121 170.410, 245.500 168.126, 245.500 162.917 C 245.500 155.698, 245.433 155.497, 243 155.404 C 240.825 155.320, 240.792 155.361, 242.750 155.720 M 261.750 156.743 L 269 157.088 269 163.460 C 269 167.623, 268.566 170.008, 267.750 170.338 C 267.003 170.639, 267.205 170.874, 268.250 170.921 C 269.768 170.990, 270 170.006, 270 163.500 L 270 156 262.250 156.199 L 254.500 156.397 261.750 156.743 M 187.232 160 C 187.232 161.925, 187.438 162.713, 187.689 161.750 C 187.941 160.787, 187.941 159.213, 187.689 158.250 C 187.438 157.287, 187.232 158.075, 187.232 160 M 279.310 162.500 C 279.315 165.800, 279.502 167.029, 279.725 165.232 C 279.947 163.435, 279.943 160.735, 279.715 159.232 C 279.486 157.729, 279.304 159.200, 279.310 162.500 M 334.252 166.500 C 334.263 168.700, 334.468 169.482, 334.707 168.238 C 334.946 166.994, 334.937 165.194, 334.687 164.238 C 334.437 163.282, 334.241 164.300, 334.252 166.500 M 188.252 170.500 C 188.263 172.700, 188.468 173.482, 188.707 172.238 C 188.946 170.994, 188.937 169.194, 188.687 168.238 C 188.437 167.282, 188.241 168.300, 188.252 170.500 M 236.250 169.689 C 237.213 169.941, 238.787 169.941, 239.750 169.689 C 240.713 169.438, 239.925 169.232, 238 169.232 C 236.075 169.232, 235.287 169.438, 236.250 169.689 M 333.252 176.500 C 333.263 178.700, 333.468 179.482, 333.707 178.238 C 333.946 176.994, 333.937 175.194, 333.687 174.238 C 333.437 173.282, 333.241 174.300, 333.252 176.500 M 202.168 180.250 L 202.336 184.500 202.725 180.803 C 203.034 177.870, 203.464 177.218, 204.807 177.648 C 206.252 178.109, 206.280 178.030, 205 177.110 C 202.477 175.295, 201.993 175.831, 202.168 180.250 M 189.252 180.500 C 189.263 182.700, 189.468 183.482, 189.707 182.238 C 189.946 180.994, 189.937 179.194, 189.687 178.238 C 189.437 177.282, 189.241 178.300, 189.252 180.500 M 321.272 183 C 321.272 185.475, 321.467 186.488, 321.706 185.250 C 321.944 184.012, 321.944 181.988, 321.706 180.750 C 321.467 179.512, 321.272 180.525, 321.272 183 M 331.700 191.415 C 331.314 195.769, 331.183 199.517, 331.411 199.744 C 332.027 200.360, 333.266 187.589, 332.803 185.394 C 332.583 184.352, 332.087 187.062, 331.700 191.415 M 241.750 186.706 C 242.988 186.944, 245.012 186.944, 246.250 186.706 C 247.488 186.467, 246.475 186.272, 244 186.272 C 241.525 186.272, 240.512 186.467, 241.750 186.706 M 278.250 186.716 C 279.762 186.945, 282.238 186.945, 283.750 186.716 C 285.262 186.487, 284.025 186.300, 281 186.300 C 277.975 186.300, 276.738 186.487, 278.250 186.716 M 190.252 190.500 C 190.263 192.700, 190.468 193.482, 190.707 192.238 C 190.946 190.994, 190.937 189.194, 190.687 188.238 C 190.437 187.282, 190.241 188.300, 190.252 190.500 M 203.252 190.500 C 203.263 192.700, 203.468 193.482, 203.707 192.238 C 203.946 190.994, 203.937 189.194, 203.687 188.238 C 203.437 187.282, 203.241 188.300, 203.252 190.500 M 258.250 187.735 C 260.863 187.941, 265.137 187.941, 267.750 187.735 C 270.363 187.529, 268.225 187.360, 263 187.360 C 257.775 187.360, 255.637 187.529, 258.250 187.735 M 256.650 200.500 L 252.865 212 240.433 212 C 233.595 212, 228 212.357, 228 212.793 C 228 213.228, 232.261 216.716, 237.468 220.543 C 242.676 224.369, 246.951 228.128, 246.968 228.897 C 246.986 229.665, 245.630 234.570, 243.956 239.797 C 242.281 245.024, 241.044 249.922, 241.206 250.681 C 241.400 251.592, 244.844 249.652, 251.319 244.986 L 261.139 237.911 271.140 245.051 C 276.641 248.978, 281.370 251.963, 281.649 251.684 C 281.929 251.405, 280.547 246.195, 278.579 240.107 C 276.610 234.018, 275 228.803, 275 228.516 C 275 228.230, 279.275 224.825, 284.500 220.949 C 289.725 217.073, 294 213.474, 294 212.951 C 294 212.401, 288.815 212, 281.717 212 L 269.435 212 265.650 200.500 C 263.568 194.175, 261.543 189, 261.150 189 C 260.757 189, 258.732 194.175, 256.650 200.500 M 320.252 192.500 C 320.263 194.700, 320.468 195.482, 320.707 194.238 C 320.946 192.994, 320.937 191.194, 320.687 190.238 C 320.437 189.282, 320.241 190.300, 320.252 192.500 M 191.252 200.500 C 191.263 202.700, 191.468 203.482, 191.707 202.238 C 191.946 200.994, 191.937 199.194, 191.687 198.238 C 191.437 197.282, 191.241 198.300, 191.252 200.500 M 204.252 200.500 C 204.263 202.700, 204.468 203.482, 204.707 202.238 C 204.946 200.994, 204.937 199.194, 204.687 198.238 C 204.437 197.282, 204.241 198.300, 204.252 200.500 M 319.252 202.500 C 319.263 204.700, 319.468 205.482, 319.707 204.238 C 319.946 202.994, 319.937 201.194, 319.687 200.238 C 319.437 199.282, 319.241 200.300, 319.252 202.500 M 330.252 206.500 C 330.263 208.700, 330.468 209.482, 330.707 208.238 C 330.946 206.994, 330.937 205.194, 330.687 204.238 C 330.437 203.282, 330.241 204.300, 330.252 206.500 M 205.252 210.500 C 205.263 212.700, 205.468 213.482, 205.707 212.238 C 205.946 210.994, 205.937 209.194, 205.687 208.238 C 205.437 207.282, 205.241 208.300, 205.252 210.500 M 192.232 211 C 192.232 212.925, 192.438 213.713, 192.689 212.750 C 192.941 211.787, 192.941 210.213, 192.689 209.250 C 192.438 208.287, 192.232 209.075, 192.232 211 M 318.252 212.500 C 318.263 214.700, 318.468 215.482, 318.707 214.238 C 318.946 212.994, 318.937 211.194, 318.687 210.238 C 318.437 209.282, 318.241 210.300, 318.252 212.500 M 329.252 216.500 C 329.263 218.700, 329.468 219.482, 329.707 218.238 C 329.946 216.994, 329.937 215.194, 329.687 214.238 C 329.437 213.282, 329.241 214.300, 329.252 216.500 M 206.272 221 C 206.272 223.475, 206.467 224.488, 206.706 223.250 C 206.944 222.012, 206.944 219.988, 206.706 218.750 C 206.467 217.512, 206.272 218.525, 206.272 221 M 193.252 221.500 C 193.263 223.700, 193.468 224.482, 193.707 223.238 C 193.946 221.994, 193.937 220.194, 193.687 219.238 C 193.437 218.282, 193.241 219.300, 193.252 221.500 M 317.252 221.500 C 317.263 223.700, 317.468 224.482, 317.707 223.238 C 317.946 221.994, 317.937 220.194, 317.687 219.238 C 317.437 218.282, 317.241 219.300, 317.252 221.500 M 328.252 227.500 C 328.263 229.700, 328.468 230.482, 328.707 229.238 C 328.946 227.994, 328.937 226.194, 328.687 225.238 C 328.437 224.282, 328.241 225.300, 328.252 227.500 M 194.252 231.500 C 194.263 233.700, 194.468 234.482, 194.707 233.238 C 194.946 231.994, 194.937 230.194, 194.687 229.238 C 194.437 228.282, 194.241 229.300, 194.252 231.500 M 207.252 231.500 C 207.263 233.700, 207.468 234.482, 207.707 233.238 C 207.946 231.994, 207.937 230.194, 207.687 229.238 C 207.437 228.282, 207.241 229.300, 207.252 231.500 M 316.252 231.500 C 316.263 233.700, 316.468 234.482, 316.707 233.238 C 316.946 231.994, 316.937 230.194, 316.687 229.238 C 316.437 228.282, 316.241 229.300, 316.252 231.500 M 327.272 238 C 327.272 240.475, 327.467 241.488, 327.706 240.250 C 327.944 239.012, 327.944 236.988, 327.706 235.750 C 327.467 234.512, 327.272 235.525, 327.272 238 M 195.252 241.500 C 195.263 243.700, 195.468 244.482, 195.707 243.238 C 195.946 241.994, 195.937 240.194, 195.687 239.238 C 195.437 238.282, 195.241 239.300, 195.252 241.500 M 208.252 241.500 C 208.263 243.700, 208.468 244.482, 208.707 243.238 C 208.946 241.994, 208.937 240.194, 208.687 239.238 C 208.437 238.282, 208.241 239.300, 208.252 241.500 M 315.252 241.500 C 315.263 243.700, 315.468 244.482, 315.707 243.238 C 315.946 241.994, 315.937 240.194, 315.687 239.238 C 315.437 238.282, 315.241 239.300, 315.252 241.500 M 326.252 247.500 C 326.263 249.700, 326.468 250.482, 326.707 249.238 C 326.946 247.994, 326.937 246.194, 326.687 245.238 C 326.437 244.282, 326.241 245.300, 326.252 247.500 M 196.252 251.500 C 196.263 253.700, 196.468 254.482, 196.707 253.238 C 196.946 251.994, 196.937 250.194, 196.687 249.238 C 196.437 248.282, 196.241 249.300, 196.252 251.500 M 325.252 257.500 C 325.263 259.700, 325.468 260.482, 325.707 259.238 C 325.946 257.994, 325.937 256.194, 325.687 255.238 C 325.437 254.282, 325.241 255.300, 325.252 257.500 M 244.750 257.706 C 245.988 257.944, 248.012 257.944, 249.250 257.706 C 250.488 257.467, 249.475 257.272, 247 257.272 C 244.525 257.272, 243.512 257.467, 244.750 257.706 M 275.750 257.706 C 276.988 257.944, 279.012 257.944, 280.250 257.706 C 281.488 257.467, 280.475 257.272, 278 257.272 C 275.525 257.272, 274.512 257.467, 275.750 257.706 M 197.252 261.500 C 197.263 263.700, 197.468 264.482, 197.707 263.238 C 197.946 261.994, 197.937 260.194, 197.687 259.238 C 197.437 258.282, 197.241 259.300, 197.252 261.500 M 258.728 258.722 C 260.503 258.943, 263.653 258.946, 265.728 258.730 C 267.802 258.513, 266.350 258.333, 262.500 258.328 C 258.650 258.324, 256.952 258.501, 258.728 258.722 M 324.272 268 C 324.272 270.475, 324.467 271.488, 324.706 270.250 C 324.944 269.012, 324.944 266.988, 324.706 265.750 C 324.467 264.512, 324.272 265.525, 324.272 268 M 208.232 269 C 208.232 270.925, 208.438 271.712, 208.689 270.750 C 208.941 269.788, 208.941 268.212, 208.689 267.250 C 208.438 266.288, 208.232 267.075, 208.232 269 M 300.196 274.250 C 300.024 281.044, 300.216 281.998, 301.750 281.985 C 302.937 281.974, 303.114 281.724, 302.301 281.207 C 301.620 280.774, 300.948 277.432, 300.747 273.472 L 300.392 266.500 300.196 274.250 M 198.252 271.500 C 198.263 273.700, 198.468 274.482, 198.707 273.238 C 198.946 271.994, 198.937 270.194, 198.687 269.238 C 198.437 268.282, 198.241 269.300, 198.252 271.500 M 291.500 277 C 291.500 281.400, 291.837 285, 292.250 285 C 292.663 285, 293 281.400, 293 277 C 293 272.600, 292.663 269, 292.250 269 C 291.837 269, 291.500 272.600, 291.500 277 M 229.667 270.667 C 228.748 271.586, 228.822 284.771, 229.750 285.349 C 230.162 285.606, 230.353 282.522, 230.174 278.496 C 229.889 272.090, 230.076 271.117, 231.674 270.704 C 233.054 270.347, 233.114 270.204, 231.917 270.116 C 231.046 270.052, 230.033 270.300, 229.667 270.667 M 277.150 279.191 C 277.067 283.421, 277.337 287.092, 277.750 287.348 C 278.163 287.604, 278.373 285.268, 278.217 282.157 C 277.730 272.390, 277.305 271.212, 277.150 279.191 M 256.750 273.723 C 258.538 273.945, 261.462 273.945, 263.250 273.723 C 265.038 273.502, 263.575 273.320, 260 273.320 C 256.425 273.320, 254.963 273.502, 256.750 273.723 M 268.196 280.206 L 268 287.912 260.750 288.257 L 253.500 288.603 260.781 288.801 C 266.114 288.947, 268.201 288.639, 268.581 287.651 C 268.865 286.909, 268.939 283.196, 268.745 279.401 L 268.392 272.500 268.196 280.206 M 201 282.313 C 201 282.485, 202.463 283.948, 204.250 285.563 L 207.500 288.500 204.563 285.250 C 201.825 282.221, 201 281.540, 201 282.313 M 316.500 286.588 L 313.500 289.165 316.750 287.015 C 318.538 285.832, 320 284.669, 320 284.432 C 320 283.683, 319.577 283.944, 316.500 286.588 M 239.762 287.707 C 241.006 287.946, 242.806 287.937, 243.762 287.687 C 244.718 287.437, 243.700 287.241, 241.500 287.252 C 239.300 287.263, 238.518 287.468, 239.762 287.707 M 208 288.490 C 208 289.175, 214.123 292.210, 214.580 291.753 C 214.797 291.536, 213.406 290.610, 211.487 289.695 C 209.569 288.781, 208 288.239, 208 288.490 M 222.500 295 C 223.600 295.473, 225.175 295.859, 226 295.859 C 226.945 295.859, 226.761 295.542, 225.500 295 C 224.400 294.527, 222.825 294.141, 222 294.141 C 221.055 294.141, 221.239 294.458, 222.500 295 M 245.250 299.689 C 246.213 299.941, 247.787 299.941, 248.750 299.689 C 249.713 299.438, 248.925 299.232, 247 299.232 C 245.075 299.232, 244.287 299.438, 245.250 299.689 M 274.762 299.707 C 276.006 299.946, 277.806 299.937, 278.762 299.687 C 279.718 299.437, 278.700 299.241, 276.500 299.252 C 274.300 299.263, 273.518 299.468, 274.762 299.707 M 257.750 300.723 C 259.538 300.945, 262.462 300.945, 264.250 300.723 C 266.038 300.502, 264.575 300.320, 261 300.320 C 257.425 300.320, 255.963 300.502, 257.750 300.723 M 95.347 329.057 C 90.828 331.294, 86.518 336.707, 84.977 342.080 C 83.669 346.639, 83.735 382.507, 85.060 387.277 C 85.637 389.355, 87.543 392.688, 89.296 394.684 C 102.578 409.812, 127.087 399.582, 125.813 379.442 L 125.500 374.500 119 374.500 L 112.500 374.500 111.961 379.188 C 110.994 387.593, 104.485 390.975, 100.073 385.365 C 98.148 382.918, 98.001 381.440, 98.015 364.615 C 98.031 345.105, 98.724 341.761, 102.877 341.167 C 108.791 340.321, 112 343.586, 112 350.451 C 112 353.739, 112.096 353.814, 116.750 354.153 C 126.120 354.837, 126.329 354.686, 125.762 347.618 C 124.993 338.044, 120.746 331.463, 113.338 328.368 C 108.464 326.331, 100.215 326.647, 95.347 329.057 M 206.750 327.805 C 203.088 328.040, 201.992 328.498, 201.966 329.805 C 201.934 331.407, 201.949 389.239, 201.984 397.250 L 202 401 219.399 401 L 236.799 401 237.194 396.250 C 237.980 386.825, 238.184 387, 226.383 387 L 216 387 216 378.500 L 216 370 226.395 370 L 236.790 370 237.150 366.223 C 237.348 364.146, 237.279 361.108, 236.997 359.473 L 236.484 356.500 226.242 356.215 L 216 355.930 216 348.965 L 216 342 226.500 342 L 237 342 237 335.056 L 237 328.111 224.250 327.806 C 217.238 327.638, 209.363 327.637, 206.750 327.805 M 352.842 329.021 C 347.369 331.912, 343.241 337.521, 341.927 343.853 C 340.311 351.635, 341.159 385.493, 343.069 389.500 C 347.803 399.427, 358.173 404.024, 369.029 401.008 C 372.764 399.971, 380.009 393.860, 381.487 390.500 C 381.971 389.400, 382.622 382.537, 382.934 375.248 L 383.500 361.996 373.250 361.998 C 367.613 361.999, 362.663 361.923, 362.250 361.830 C 361.311 361.616, 360.636 371.412, 361.384 374.395 C 361.853 376.263, 362.486 376.542, 365.470 376.193 L 369 375.781 369 379.891 C 369 387.046, 363.099 390.330, 357.861 386.089 C 355.526 384.198, 355.500 383.963, 355.500 364.694 C 355.500 346.939, 355.669 345.024, 357.405 343.106 C 359.705 340.564, 365.163 340.286, 367.094 342.613 C 367.831 343.501, 368.673 346.313, 368.967 348.863 L 369.500 353.500 376.250 353.796 L 383 354.091 383 348.514 C 383 335.401, 374.846 326.948, 362.290 327.044 C 358.569 327.073, 355.193 327.779, 352.842 329.021 M 390.629 327.823 C 389.160 328.115, 389 331.709, 389 364.500 C 389 405.512, 388.123 401.764, 397.575 401.161 L 402.894 400.821 403.197 396.661 C 403.364 394.372, 403.376 378.028, 403.223 360.341 L 402.947 328.182 397.602 327.841 C 394.662 327.653, 391.524 327.645, 390.629 327.823 M 420.542 329.220 C 418.364 330.483, 415.216 333.462, 413.545 335.840 C 410.730 339.845, 410.469 340.954, 410.003 350.925 C 409.726 356.844, 409.725 367.759, 410 375.182 C 410.470 387.861, 410.665 388.914, 413.234 392.589 C 417.923 399.298, 422.212 401.500, 430.591 401.500 C 437.022 401.500, 438.305 401.165, 442.109 398.491 C 447.774 394.510, 451.019 388.128, 451.290 380.434 L 451.500 374.500 444.750 374.204 L 438 373.909 438 377.504 C 438 386.213, 431.099 391.099, 426 386 C 424.138 384.138, 424 382.667, 424 364.723 C 424 342.871, 424.505 341, 430.402 341 C 434.717 341, 437.105 343.749, 437.748 349.459 L 438.260 354 444.630 354 L 451 354 450.984 347.750 C 450.964 340.348, 448.529 335.324, 442.677 330.611 C 439.330 327.915, 437.959 327.494, 431.677 327.227 C 425.659 326.972, 423.861 327.294, 420.542 329.220 M 132 364.500 L 132 401 139 401 L 146 401 146 364.500 L 146 328 139 328 L 132 328 132 364.500 M 154 364.546 L 154 401.091 160.687 400.796 L 167.375 400.500 167.143 383.500 L 166.910 366.500 172.205 377.520 C 175.117 383.581, 178.780 391.344, 180.344 394.770 L 183.189 401 188.594 401 L 194 401 194 397 C 194 394.709, 194.480 393, 195.122 393 C 195.946 393, 195.943 392.636, 195.110 391.632 C 194.317 390.677, 193.994 381.415, 194.038 360.882 C 194.073 344.722, 194.079 330.712, 194.051 329.750 C 194.008 328.268, 193.004 328, 187.500 328 L 181 328 181 345.200 C 181 355.162, 180.630 362, 180.120 361.450 C 179.635 360.928, 176.148 353.190, 172.370 344.257 L 165.500 328.013 159.750 328.007 L 154 328 154 364.546 M 245 364.500 L 245 401 252 401 L 259 401 259.036 396.750 C 259.056 394.413, 259.041 382.938, 259.001 371.250 C 258.962 359.563, 259.118 350, 259.348 350 C 259.577 350, 261.671 352.925, 264 356.500 C 266.329 360.075, 268.745 362.996, 269.367 362.991 C 269.990 362.986, 272.300 360.188, 274.500 356.772 L 278.500 350.562 279 375.531 L 279.500 400.500 286.250 400.796 L 293 401.091 293.022 396.796 C 293.050 391.275, 293.050 330.903, 293.021 329.250 C 293.006 328.366, 290.858 328, 285.678 328 L 278.357 328 273.757 334.607 L 269.158 341.214 264.845 334.607 L 260.531 328 252.766 328 L 245 328 245 364.500 M 309.601 330.712 C 307.288 341.931, 296.996 400.334, 297.284 400.603 C 297.673 400.967, 302.416 401.224, 306.662 401.111 C 310.713 401.003, 310.842 400.894, 311.500 397 L 312.176 393 318.460 393 L 324.744 393 325.384 397 C 325.973 400.682, 326.281 401.008, 329.262 401.101 C 333.184 401.224, 339.403 400.907, 339.757 400.567 C 339.898 400.431, 339.107 395.185, 337.998 388.910 C 336.890 382.634, 335.071 372.100, 333.957 365.500 C 332.842 358.900, 330.933 347.875, 329.715 341 L 327.500 328.500 318.838 328.212 L 310.175 327.925 309.601 330.712 M 318 357.583 C 318 359.188, 317.325 364.027, 316.500 368.338 C 314.255 380.069, 314.341 380.600, 318.500 380.600 C 322.526 380.600, 322.581 380.356, 320.912 370 C 320.336 366.425, 319.637 361.704, 319.358 359.509 C 318.742 354.652, 318 353.601, 318 357.583" stroke="none" fill="#f5a94c" fill-rule="evenodd"/></svg>